<?xml version="1.0" standalone="no"?><!DOCTYPE svg PUBLIC "-//W3C//DTD SVG 1.1//EN" "http://www.w3.org/Graphics/SVG/1.1/DTD/svg11.dtd"><svg t="1494835287197" class="icon" style="" viewBox="0 0 1024 1024" version="1.1" xmlns="http://www.w3.org/2000/svg" p-id="2754" xmlns:xlink="http://www.w3.org/1999/xlink" width="200" height="200"><defs><style type="text/css"></style></defs><path d="M647.190005 619.039875c-4.634554-2.417049-12.920264-1.801019-16.872273 3.701299-13.886265 19.338441-47.297212 57.198723-127.187751 57.216119-79.888492-0.017396-113.299439-37.876656-127.187751-57.216119-3.949962-5.502317-12.236696-6.118348-16.870226-3.701299-122.919541 64.383356-162.632007 161.030533-162.632007 341.065909l306.639842 0 0.100284 0 306.639842 0C809.820989 780.070408 770.109546 683.424254 647.190005 619.039875z" p-id="2755"></path><path d="M329.379753 477.880925c6.534833 3.302209 15.871479 7.368828 26.991748 11.670807 20.171412 31.842219 68.286246 78.973656 146.758482 78.973656l0.051165 0c78.473259 0 126.569674-47.12325 146.760528-78.965469 11.119245-4.310166 20.472264-8.376785 27.007097-11.678994l0-0.008186c23.540136-11.620665 62.46875-25.465998 62.46875-70.712505 0-66.303079-16.47216-171.566494-39.411615-219.381499C658.9437 102.20373 581.638033 63.910589 503.181147 63.893192l-0.017396 0c-0.017396 0-0.033769 0-0.033769 0-78.455863 0.017396-155.778926 38.310537-196.824761 123.885542-22.939455 47.813982-39.409568 153.078421-39.409568 219.381499C266.895653 452.424136 305.839617 466.26026 329.379753 477.880925z" p-id="2756"></path></svg>